<svg width="200" height="200" viewBox="0 0 200 200" xmlns="http://www.w3.org/2000/svg">
  <defs>
    <radialGradient id="woodGradient" cx="50%" cy="50%" r="50%">
      <stop offset="0%" style="stop-color:#CD853F;stop-opacity:1" />
      <stop offset="100%" style="stop-color:#8B4513;stop-opacity:1" />
    </radialGradient>
    <linearGradient id="mountainGradient" x1="0%" y1="0%" x2="100%" y2="100%">
      <stop offset="0%" style="stop-color:#556B2F;stop-opacity:1" />
      <stop offset="100%" style="stop-color:#8B4513;stop-opacity:1" />
    </linearGradient>
    <linearGradient id="leafGradient" x1="0%" y1="0%" x2="100%" y2="100%">
      <stop offset="0%" style="stop-color:#F5F5DC;stop-opacity:1" />
      <stop offset="50%" style="stop-color:#FFFACD;stop-opacity:1" />
      <stop offset="100%" style="stop-color:#DDD;stop-opacity:1" />
    </linearGradient>
    <linearGradient id="circuitGradient" x1="0%" y1="0%" x2="100%" y2="100%">
      <stop offset="0%" style="stop-color:#228B22;stop-opacity:1" />
      <stop offset="100%" style="stop-color:#32CD32;stop-opacity:1" />
    </linearGradient>
  </defs>
  
  <!-- Círculo externo de madeira com textura -->
  <circle cx="100" cy="100" r="95" fill="url(#woodGradient)" stroke="#654321" stroke-width="3"/>
  
  <!-- Anéis de madeira para textura -->
  <circle cx="100" cy="100" r="85" fill="none" stroke="#8B4513" stroke-width="2" opacity="0.6"/>
  <circle cx="100" cy="100" r="75" fill="none" stroke="#A0522D" stroke-width="1" opacity="0.4"/>
  <circle cx="100" cy="100" r="65" fill="none" stroke="#8B4513" stroke-width="1" opacity="0.3"/>
  
  <!-- Fundo interno -->
  <circle cx="100" cy="100" r="75" fill="#F5DEB3" opacity="0.8"/>
  
  <!-- Montanhas em camadas -->
  <g opacity="0.9">
    <!-- Montanha de fundo -->
    <path d="M 25 130 L 50 85 L 75 100 L 100 75 L 125 90 L 150 70 L 175 130 Z" fill="url(#mountainGradient)" opacity="0.7"/>
    <!-- Montanha da frente -->
    <path d="M 35 130 L 65 95 L 90 110 L 115 85 L 140 100 L 165 130 Z" fill="#556B2F" opacity="0.8"/>
  </g>
  
  <!-- Circuitos tecnológicos integrados -->
  <g stroke="url(#circuitGradient)" stroke-width="2" fill="none" opacity="0.8">
    <!-- Circuitos da base -->
    <path d="M 30 140 L 60 140 L 60 135 L 85 135"/>
    <circle cx="85" cy="135" r="2" fill="#32CD32"/>
    <path d="M 170 140 L 140 140 L 140 135 L 115 135"/>
    <circle cx="115" cy="135" r="2" fill="#32CD32"/>
    
    <!-- Circuitos laterais -->
    <path d="M 40 160 L 70 160 L 70 150 L 90 150"/>
    <circle cx="90" cy="150" r="1.5" fill="#228B22"/>
    <path d="M 160 160 L 130 160 L 130 150 L 110 150"/>
    <circle cx="110" cy="150" r="1.5" fill="#228B22"/>
    
    <!-- Circuitos que sobem para a folha -->
    <path d="M 100 155 L 100 130"/>
    <path d="M 95 125 L 105 125"/>
  </g>
  
  <!-- Folha central (símbolo do crescimento) -->
  <g transform="translate(100,95)">
    <!-- Caule da folha -->
    <rect x="-2" y="20" width="4" height="35" fill="#8B4513" rx="2"/>
    
    <!-- Folha principal -->
    <ellipse cx="0" cy="0" rx="28" ry="40" fill="url(#leafGradient)" stroke="#8B4513" stroke-width="2"/>
    
    <!-- Nervuras da folha -->
    <path d="M 0 -35 L 0 35" stroke="#8B4513" stroke-width="2"/>
    <path d="M 0 -25 L -18 -15" stroke="#8B4513" stroke-width="1.5"/>
    <path d="M 0 -25 L 18 -15" stroke="#8B4513" stroke-width="1.5"/>
    <path d="M 0 -10 L -22 0" stroke="#8B4513" stroke-width="1.5"/>
    <path d="M 0 -10 L 22 0" stroke="#8B4513" stroke-width="1.5"/>
    <path d="M 0 5 L -20 15" stroke="#8B4513" stroke-width="1.5"/>
    <path d="M 0 5 L 20 15" stroke="#8B4513" stroke-width="1.5"/>
    <path d="M 0 20 L -15 30" stroke="#8B4513" stroke-width="1"/>
    <path d="M 0 20 L 15 30" stroke="#8B4513" stroke-width="1"/>
  </g>
  
  <!-- Pontos de conexão tecnológica -->
  <g fill="#32CD32" opacity="0.9">
    <circle cx="75" cy="120" r="1.5"/>
    <circle cx="125" cy="120" r="1.5"/>
    <circle cx="85" cy="165" r="1"/>
    <circle cx="115" cy="165" r="1"/>
  </g>
  
  <!-- Detalhes de acabamento -->
  <circle cx="100" cy="100" r="95" fill="none" stroke="#8B4513" stroke-width="1" opacity="0.5"/>
</svg>